<mxfile host="app.diagrams.net" modified="2023-06-17T16:46:51.133Z" agent="Mozilla/5.0 (Windows NT 10.0; Win64; x64) AppleWebKit/537.36 (KHTML, like Gecko) Chrome/114.0.0.0 Safari/537.36" etag="Klc3j2E6g_-jRCr2vXBr" version="21.3.8" type="device">
  <diagram id="C5RBs43oDa-KdzZeNtuy" name="Page-1">
    <mxGraphModel dx="1538" dy="689" grid="1" gridSize="10" guides="1" tooltips="1" connect="1" arrows="1" fold="1" page="1" pageScale="1" pageWidth="827" pageHeight="1169" math="0" shadow="0">
      <root>
        <mxCell id="WIyWlLk6GJQsqaUBKTNV-0" />
        <mxCell id="WIyWlLk6GJQsqaUBKTNV-1" parent="WIyWlLk6GJQsqaUBKTNV-0" />
        <mxCell id="zkfFHV4jXpPFQw0GAbJ--0" value="User" style="swimlane;fontStyle=2;align=center;verticalAlign=top;childLayout=stackLayout;horizontal=1;startSize=26;horizontalStack=0;resizeParent=1;resizeLast=0;collapsible=1;marginBottom=0;rounded=0;shadow=0;strokeWidth=1;" parent="WIyWlLk6GJQsqaUBKTNV-1" vertex="1">
          <mxGeometry x="220" y="70" width="160" height="170" as="geometry">
            <mxRectangle x="230" y="140" width="160" height="26" as="alternateBounds" />
          </mxGeometry>
        </mxCell>
        <mxCell id="vOYVuL1RBpVOzwgV3RMF-53" value="-ID: Integer" style="text;align=left;verticalAlign=top;spacingLeft=4;spacingRight=4;overflow=hidden;rotatable=0;points=[[0,0.5],[1,0.5]];portConstraint=eastwest;" parent="zkfFHV4jXpPFQw0GAbJ--0" vertex="1">
          <mxGeometry y="26" width="160" height="26" as="geometry" />
        </mxCell>
        <mxCell id="vOYVuL1RBpVOzwgV3RMF-54" value="-username: String" style="text;align=left;verticalAlign=top;spacingLeft=4;spacingRight=4;overflow=hidden;rotatable=0;points=[[0,0.5],[1,0.5]];portConstraint=eastwest;" parent="zkfFHV4jXpPFQw0GAbJ--0" vertex="1">
          <mxGeometry y="52" width="160" height="26" as="geometry" />
        </mxCell>
        <mxCell id="vOYVuL1RBpVOzwgV3RMF-77" value="-Password: String" style="text;align=left;verticalAlign=top;spacingLeft=4;spacingRight=4;overflow=hidden;rotatable=0;points=[[0,0.5],[1,0.5]];portConstraint=eastwest;" parent="zkfFHV4jXpPFQw0GAbJ--0" vertex="1">
          <mxGeometry y="78" width="160" height="26" as="geometry" />
        </mxCell>
        <mxCell id="vOYVuL1RBpVOzwgV3RMF-78" value="-role: String" style="text;align=left;verticalAlign=top;spacingLeft=4;spacingRight=4;overflow=hidden;rotatable=0;points=[[0,0.5],[1,0.5]];portConstraint=eastwest;" parent="zkfFHV4jXpPFQw0GAbJ--0" vertex="1">
          <mxGeometry y="104" width="160" height="26" as="geometry" />
        </mxCell>
        <mxCell id="zkfFHV4jXpPFQw0GAbJ--4" value="" style="line;html=1;strokeWidth=1;align=left;verticalAlign=middle;spacingTop=-1;spacingLeft=3;spacingRight=3;rotatable=0;labelPosition=right;points=[];portConstraint=eastwest;" parent="zkfFHV4jXpPFQw0GAbJ--0" vertex="1">
          <mxGeometry y="130" width="160" height="40" as="geometry" />
        </mxCell>
        <mxCell id="zkfFHV4jXpPFQw0GAbJ--12" value="" style="endArrow=block;endSize=10;endFill=0;shadow=0;strokeWidth=1;rounded=0;edgeStyle=elbowEdgeStyle;elbow=vertical;exitX=0.5;exitY=0;exitDx=0;exitDy=0;" parent="WIyWlLk6GJQsqaUBKTNV-1" source="vOYVuL1RBpVOzwgV3RMF-17" target="zkfFHV4jXpPFQw0GAbJ--0" edge="1">
          <mxGeometry width="160" relative="1" as="geometry">
            <mxPoint x="200" y="360" as="sourcePoint" />
            <mxPoint x="200" y="203" as="targetPoint" />
          </mxGeometry>
        </mxCell>
        <mxCell id="vOYVuL1RBpVOzwgV3RMF-1" value="1..1" style="edgeLabel;html=1;align=center;verticalAlign=middle;resizable=0;points=[];" parent="zkfFHV4jXpPFQw0GAbJ--12" vertex="1" connectable="0">
          <mxGeometry x="-0.1124" y="1" relative="1" as="geometry">
            <mxPoint as="offset" />
          </mxGeometry>
        </mxCell>
        <mxCell id="vOYVuL1RBpVOzwgV3RMF-62" style="edgeStyle=orthogonalEdgeStyle;rounded=0;orthogonalLoop=1;jettySize=auto;html=1;" parent="WIyWlLk6GJQsqaUBKTNV-1" edge="1">
          <mxGeometry relative="1" as="geometry">
            <mxPoint x="730" y="359.83333333333337" as="targetPoint" />
            <mxPoint x="440" y="350" as="sourcePoint" />
            <Array as="points">
              <mxPoint x="440" y="340" />
              <mxPoint x="730" y="340" />
            </Array>
          </mxGeometry>
        </mxCell>
        <mxCell id="vOYVuL1RBpVOzwgV3RMF-63" value="1..*" style="edgeLabel;html=1;align=center;verticalAlign=middle;resizable=0;points=[];" parent="vOYVuL1RBpVOzwgV3RMF-62" vertex="1" connectable="0">
          <mxGeometry x="0.0258" y="1" relative="1" as="geometry">
            <mxPoint x="-124" as="offset" />
          </mxGeometry>
        </mxCell>
        <mxCell id="vOYVuL1RBpVOzwgV3RMF-73" value="*..1" style="edgeLabel;html=1;align=center;verticalAlign=middle;resizable=0;points=[];" parent="vOYVuL1RBpVOzwgV3RMF-62" vertex="1" connectable="0">
          <mxGeometry x="0.698" y="-3" relative="1" as="geometry">
            <mxPoint as="offset" />
          </mxGeometry>
        </mxCell>
        <mxCell id="zkfFHV4jXpPFQw0GAbJ--13" value="Tutor" style="swimlane;fontStyle=0;align=center;verticalAlign=top;childLayout=stackLayout;horizontal=1;startSize=26;horizontalStack=0;resizeParent=1;resizeLast=0;collapsible=1;marginBottom=0;rounded=0;shadow=0;strokeWidth=1;" parent="WIyWlLk6GJQsqaUBKTNV-1" vertex="1">
          <mxGeometry x="330" y="360" width="220" height="446" as="geometry">
            <mxRectangle x="340" y="380" width="170" height="26" as="alternateBounds" />
          </mxGeometry>
        </mxCell>
        <mxCell id="zkfFHV4jXpPFQw0GAbJ--14" value="-ID: Integer" style="text;align=left;verticalAlign=top;spacingLeft=4;spacingRight=4;overflow=hidden;rotatable=0;points=[[0,0.5],[1,0.5]];portConstraint=eastwest;" parent="zkfFHV4jXpPFQw0GAbJ--13" vertex="1">
          <mxGeometry y="26" width="220" height="26" as="geometry" />
        </mxCell>
        <mxCell id="vOYVuL1RBpVOzwgV3RMF-7" value="-Name: String" style="text;align=left;verticalAlign=top;spacingLeft=4;spacingRight=4;overflow=hidden;rotatable=0;points=[[0,0.5],[1,0.5]];portConstraint=eastwest;" parent="zkfFHV4jXpPFQw0GAbJ--13" vertex="1">
          <mxGeometry y="52" width="220" height="26" as="geometry" />
        </mxCell>
        <mxCell id="vOYVuL1RBpVOzwgV3RMF-8" value="-Email: String" style="text;align=left;verticalAlign=top;spacingLeft=4;spacingRight=4;overflow=hidden;rotatable=0;points=[[0,0.5],[1,0.5]];portConstraint=eastwest;" parent="zkfFHV4jXpPFQw0GAbJ--13" vertex="1">
          <mxGeometry y="78" width="220" height="26" as="geometry" />
        </mxCell>
        <mxCell id="vOYVuL1RBpVOzwgV3RMF-9" value="-Gender: String" style="text;align=left;verticalAlign=top;spacingLeft=4;spacingRight=4;overflow=hidden;rotatable=0;points=[[0,0.5],[1,0.5]];portConstraint=eastwest;" parent="zkfFHV4jXpPFQw0GAbJ--13" vertex="1">
          <mxGeometry y="104" width="220" height="26" as="geometry" />
        </mxCell>
        <mxCell id="vOYVuL1RBpVOzwgV3RMF-10" value="-LanguageSpoken: String" style="text;align=left;verticalAlign=top;spacingLeft=4;spacingRight=4;overflow=hidden;rotatable=0;points=[[0,0.5],[1,0.5]];portConstraint=eastwest;" parent="zkfFHV4jXpPFQw0GAbJ--13" vertex="1">
          <mxGeometry y="130" width="220" height="26" as="geometry" />
        </mxCell>
        <mxCell id="vOYVuL1RBpVOzwgV3RMF-12" value="-EduLevel: String" style="text;align=left;verticalAlign=top;spacingLeft=4;spacingRight=4;overflow=hidden;rotatable=0;points=[[0,0.5],[1,0.5]];portConstraint=eastwest;" parent="zkfFHV4jXpPFQw0GAbJ--13" vertex="1">
          <mxGeometry y="156" width="220" height="26" as="geometry" />
        </mxCell>
        <mxCell id="vOYVuL1RBpVOzwgV3RMF-13" value="-Major: String" style="text;align=left;verticalAlign=top;spacingLeft=4;spacingRight=4;overflow=hidden;rotatable=0;points=[[0,0.5],[1,0.5]];portConstraint=eastwest;" parent="zkfFHV4jXpPFQw0GAbJ--13" vertex="1">
          <mxGeometry y="182" width="220" height="26" as="geometry" />
        </mxCell>
        <mxCell id="vOYVuL1RBpVOzwgV3RMF-35" value="-Nationality: String" style="text;align=left;verticalAlign=top;spacingLeft=4;spacingRight=4;overflow=hidden;rotatable=0;points=[[0,0.5],[1,0.5]];portConstraint=eastwest;" parent="zkfFHV4jXpPFQw0GAbJ--13" vertex="1">
          <mxGeometry y="208" width="220" height="26" as="geometry" />
        </mxCell>
        <mxCell id="zkfFHV4jXpPFQw0GAbJ--15" value="" style="line;html=1;strokeWidth=1;align=left;verticalAlign=middle;spacingTop=-1;spacingLeft=3;spacingRight=3;rotatable=0;labelPosition=right;points=[];portConstraint=eastwest;" parent="zkfFHV4jXpPFQw0GAbJ--13" vertex="1">
          <mxGeometry y="234" width="220" height="4" as="geometry" />
        </mxCell>
        <mxCell id="vOYVuL1RBpVOzwgV3RMF-44" value="+CRUD ();" style="text;align=left;verticalAlign=top;spacingLeft=4;spacingRight=4;overflow=hidden;rotatable=0;points=[[0,0.5],[1,0.5]];portConstraint=eastwest;" parent="zkfFHV4jXpPFQw0GAbJ--13" vertex="1">
          <mxGeometry y="238" width="220" height="26" as="geometry" />
        </mxCell>
        <mxCell id="vOYVuL1RBpVOzwgV3RMF-45" value="+Show Student Account();" style="text;align=left;verticalAlign=top;spacingLeft=4;spacingRight=4;overflow=hidden;rotatable=0;points=[[0,0.5],[1,0.5]];portConstraint=eastwest;" parent="zkfFHV4jXpPFQw0GAbJ--13" vertex="1">
          <mxGeometry y="264" width="220" height="26" as="geometry" />
        </mxCell>
        <mxCell id="vOYVuL1RBpVOzwgV3RMF-46" value="+Accept Reservation Request();" style="text;align=left;verticalAlign=top;spacingLeft=4;spacingRight=4;overflow=hidden;rotatable=0;points=[[0,0.5],[1,0.5]];portConstraint=eastwest;" parent="zkfFHV4jXpPFQw0GAbJ--13" vertex="1">
          <mxGeometry y="290" width="220" height="26" as="geometry" />
        </mxCell>
        <mxCell id="vOYVuL1RBpVOzwgV3RMF-47" value="+Decline Reservation Request();" style="text;align=left;verticalAlign=top;spacingLeft=4;spacingRight=4;overflow=hidden;rotatable=0;points=[[0,0.5],[1,0.5]];portConstraint=eastwest;" parent="zkfFHV4jXpPFQw0GAbJ--13" vertex="1">
          <mxGeometry y="316" width="220" height="26" as="geometry" />
        </mxCell>
        <mxCell id="vOYVuL1RBpVOzwgV3RMF-48" value="+Show All Reservation List ();" style="text;align=left;verticalAlign=top;spacingLeft=4;spacingRight=4;overflow=hidden;rotatable=0;points=[[0,0.5],[1,0.5]];portConstraint=eastwest;" parent="zkfFHV4jXpPFQw0GAbJ--13" vertex="1">
          <mxGeometry y="342" width="220" height="26" as="geometry" />
        </mxCell>
        <mxCell id="zkfFHV4jXpPFQw0GAbJ--16" value="" style="endArrow=block;endSize=10;endFill=0;shadow=0;strokeWidth=1;rounded=0;edgeStyle=elbowEdgeStyle;elbow=vertical;" parent="WIyWlLk6GJQsqaUBKTNV-1" source="zkfFHV4jXpPFQw0GAbJ--13" target="zkfFHV4jXpPFQw0GAbJ--0" edge="1">
          <mxGeometry width="160" relative="1" as="geometry">
            <mxPoint x="210" y="373" as="sourcePoint" />
            <mxPoint x="310" y="271" as="targetPoint" />
          </mxGeometry>
        </mxCell>
        <mxCell id="vOYVuL1RBpVOzwgV3RMF-2" value="1..1" style="edgeLabel;html=1;align=center;verticalAlign=middle;resizable=0;points=[];" parent="zkfFHV4jXpPFQw0GAbJ--16" vertex="1" connectable="0">
          <mxGeometry x="-0.1" relative="1" as="geometry">
            <mxPoint as="offset" />
          </mxGeometry>
        </mxCell>
        <mxCell id="vOYVuL1RBpVOzwgV3RMF-80" style="edgeStyle=orthogonalEdgeStyle;rounded=0;orthogonalLoop=1;jettySize=auto;html=1;exitX=0.5;exitY=1;exitDx=0;exitDy=0;entryX=1;entryY=0.25;entryDx=0;entryDy=0;" parent="WIyWlLk6GJQsqaUBKTNV-1" source="zkfFHV4jXpPFQw0GAbJ--17" target="vOYVuL1RBpVOzwgV3RMF-49" edge="1">
          <mxGeometry relative="1" as="geometry">
            <mxPoint x="680" y="890" as="targetPoint" />
          </mxGeometry>
        </mxCell>
        <mxCell id="vOYVuL1RBpVOzwgV3RMF-82" value="1..1" style="edgeLabel;html=1;align=center;verticalAlign=middle;resizable=0;points=[];" parent="vOYVuL1RBpVOzwgV3RMF-80" vertex="1" connectable="0">
          <mxGeometry x="0.8314" relative="1" as="geometry">
            <mxPoint as="offset" />
          </mxGeometry>
        </mxCell>
        <mxCell id="zkfFHV4jXpPFQw0GAbJ--17" value="Session Service" style="swimlane;fontStyle=0;align=center;verticalAlign=top;childLayout=stackLayout;horizontal=1;startSize=26;horizontalStack=0;resizeParent=1;resizeLast=0;collapsible=1;marginBottom=0;rounded=0;shadow=0;strokeWidth=1;" parent="WIyWlLk6GJQsqaUBKTNV-1" vertex="1">
          <mxGeometry x="650" y="360" width="160" height="120" as="geometry">
            <mxRectangle x="550" y="140" width="160" height="26" as="alternateBounds" />
          </mxGeometry>
        </mxCell>
        <mxCell id="zkfFHV4jXpPFQw0GAbJ--18" value="-SessionCategory: String" style="text;align=left;verticalAlign=top;spacingLeft=4;spacingRight=4;overflow=hidden;rotatable=0;points=[[0,0.5],[1,0.5]];portConstraint=eastwest;" parent="zkfFHV4jXpPFQw0GAbJ--17" vertex="1">
          <mxGeometry y="26" width="160" height="26" as="geometry" />
        </mxCell>
        <mxCell id="zkfFHV4jXpPFQw0GAbJ--19" value="-Price: Integer" style="text;align=left;verticalAlign=top;spacingLeft=4;spacingRight=4;overflow=hidden;rotatable=0;points=[[0,0.5],[1,0.5]];portConstraint=eastwest;rounded=0;shadow=0;html=0;" parent="zkfFHV4jXpPFQw0GAbJ--17" vertex="1">
          <mxGeometry y="52" width="160" height="26" as="geometry" />
        </mxCell>
        <mxCell id="zkfFHV4jXpPFQw0GAbJ--23" value="" style="line;html=1;strokeWidth=1;align=left;verticalAlign=middle;spacingTop=-1;spacingLeft=3;spacingRight=3;rotatable=0;labelPosition=right;points=[];portConstraint=eastwest;" parent="zkfFHV4jXpPFQw0GAbJ--17" vertex="1">
          <mxGeometry y="78" width="160" height="8" as="geometry" />
        </mxCell>
        <mxCell id="vOYVuL1RBpVOzwgV3RMF-17" value="Student" style="swimlane;fontStyle=0;align=center;verticalAlign=top;childLayout=stackLayout;horizontal=1;startSize=26;horizontalStack=0;resizeParent=1;resizeLast=0;collapsible=1;marginBottom=0;rounded=0;shadow=0;strokeWidth=1;" parent="WIyWlLk6GJQsqaUBKTNV-1" vertex="1">
          <mxGeometry x="30" y="360" width="230" height="630" as="geometry">
            <mxRectangle x="340" y="380" width="170" height="26" as="alternateBounds" />
          </mxGeometry>
        </mxCell>
        <mxCell id="vOYVuL1RBpVOzwgV3RMF-18" value="-ID: Integer" style="text;align=left;verticalAlign=top;spacingLeft=4;spacingRight=4;overflow=hidden;rotatable=0;points=[[0,0.5],[1,0.5]];portConstraint=eastwest;" parent="vOYVuL1RBpVOzwgV3RMF-17" vertex="1">
          <mxGeometry y="26" width="230" height="26" as="geometry" />
        </mxCell>
        <mxCell id="vOYVuL1RBpVOzwgV3RMF-21" value="-Name: String" style="text;align=left;verticalAlign=top;spacingLeft=4;spacingRight=4;overflow=hidden;rotatable=0;points=[[0,0.5],[1,0.5]];portConstraint=eastwest;" parent="vOYVuL1RBpVOzwgV3RMF-17" vertex="1">
          <mxGeometry y="52" width="230" height="26" as="geometry" />
        </mxCell>
        <mxCell id="vOYVuL1RBpVOzwgV3RMF-22" value="-Email: String" style="text;align=left;verticalAlign=top;spacingLeft=4;spacingRight=4;overflow=hidden;rotatable=0;points=[[0,0.5],[1,0.5]];portConstraint=eastwest;" parent="vOYVuL1RBpVOzwgV3RMF-17" vertex="1">
          <mxGeometry y="78" width="230" height="26" as="geometry" />
        </mxCell>
        <mxCell id="vOYVuL1RBpVOzwgV3RMF-23" value="-Gender: String" style="text;align=left;verticalAlign=top;spacingLeft=4;spacingRight=4;overflow=hidden;rotatable=0;points=[[0,0.5],[1,0.5]];portConstraint=eastwest;" parent="vOYVuL1RBpVOzwgV3RMF-17" vertex="1">
          <mxGeometry y="104" width="230" height="26" as="geometry" />
        </mxCell>
        <mxCell id="vOYVuL1RBpVOzwgV3RMF-24" value="-LanguageSpoken: String" style="text;align=left;verticalAlign=top;spacingLeft=4;spacingRight=4;overflow=hidden;rotatable=0;points=[[0,0.5],[1,0.5]];portConstraint=eastwest;" parent="vOYVuL1RBpVOzwgV3RMF-17" vertex="1">
          <mxGeometry y="130" width="230" height="26" as="geometry" />
        </mxCell>
        <mxCell id="vOYVuL1RBpVOzwgV3RMF-26" value="-EduLevel: String" style="text;align=left;verticalAlign=top;spacingLeft=4;spacingRight=4;overflow=hidden;rotatable=0;points=[[0,0.5],[1,0.5]];portConstraint=eastwest;" parent="vOYVuL1RBpVOzwgV3RMF-17" vertex="1">
          <mxGeometry y="156" width="230" height="26" as="geometry" />
        </mxCell>
        <mxCell id="vOYVuL1RBpVOzwgV3RMF-28" value="" style="line;html=1;strokeWidth=1;align=left;verticalAlign=middle;spacingTop=-1;spacingLeft=3;spacingRight=3;rotatable=0;labelPosition=right;points=[];portConstraint=eastwest;" parent="vOYVuL1RBpVOzwgV3RMF-17" vertex="1">
          <mxGeometry y="182" width="230" height="4" as="geometry" />
        </mxCell>
        <mxCell id="vOYVuL1RBpVOzwgV3RMF-29" value="+CRUD ();" style="text;align=left;verticalAlign=top;spacingLeft=4;spacingRight=4;overflow=hidden;rotatable=0;points=[[0,0.5],[1,0.5]];portConstraint=eastwest;" parent="vOYVuL1RBpVOzwgV3RMF-17" vertex="1">
          <mxGeometry y="186" width="230" height="26" as="geometry" />
        </mxCell>
        <mxCell id="vOYVuL1RBpVOzwgV3RMF-30" value="+Search Teacher By Name();" style="text;align=left;verticalAlign=top;spacingLeft=4;spacingRight=4;overflow=hidden;rotatable=0;points=[[0,0.5],[1,0.5]];portConstraint=eastwest;" parent="vOYVuL1RBpVOzwgV3RMF-17" vertex="1">
          <mxGeometry y="212" width="230" height="26" as="geometry" />
        </mxCell>
        <mxCell id="vOYVuL1RBpVOzwgV3RMF-31" value="+Search Teacher By Rate();" style="text;align=left;verticalAlign=top;spacingLeft=4;spacingRight=4;overflow=hidden;rotatable=0;points=[[0,0.5],[1,0.5]];portConstraint=eastwest;" parent="vOYVuL1RBpVOzwgV3RMF-17" vertex="1">
          <mxGeometry y="238" width="230" height="26" as="geometry" />
        </mxCell>
        <mxCell id="vOYVuL1RBpVOzwgV3RMF-32" value="+Search Teacher By Major();" style="text;align=left;verticalAlign=top;spacingLeft=4;spacingRight=4;overflow=hidden;rotatable=0;points=[[0,0.5],[1,0.5]];portConstraint=eastwest;" parent="vOYVuL1RBpVOzwgV3RMF-17" vertex="1">
          <mxGeometry y="264" width="230" height="26" as="geometry" />
        </mxCell>
        <mxCell id="vOYVuL1RBpVOzwgV3RMF-33" value="+Search Teacher By LanguageSpoken();" style="text;align=left;verticalAlign=top;spacingLeft=4;spacingRight=4;overflow=hidden;rotatable=0;points=[[0,0.5],[1,0.5]];portConstraint=eastwest;" parent="vOYVuL1RBpVOzwgV3RMF-17" vertex="1">
          <mxGeometry y="290" width="230" height="28" as="geometry" />
        </mxCell>
        <mxCell id="vOYVuL1RBpVOzwgV3RMF-34" value="+Search Teacher By Nationality();" style="text;align=left;verticalAlign=top;spacingLeft=4;spacingRight=4;overflow=hidden;rotatable=0;points=[[0,0.5],[1,0.5]];portConstraint=eastwest;" parent="vOYVuL1RBpVOzwgV3RMF-17" vertex="1">
          <mxGeometry y="318" width="230" height="26" as="geometry" />
        </mxCell>
        <mxCell id="vOYVuL1RBpVOzwgV3RMF-36" value="+Reserve Session();" style="text;align=left;verticalAlign=top;spacingLeft=4;spacingRight=4;overflow=hidden;rotatable=0;points=[[0,0.5],[1,0.5]];portConstraint=eastwest;" parent="vOYVuL1RBpVOzwgV3RMF-17" vertex="1">
          <mxGeometry y="344" width="230" height="26" as="geometry" />
        </mxCell>
        <mxCell id="vOYVuL1RBpVOzwgV3RMF-37" value="+Cancel Reservation();" style="text;align=left;verticalAlign=top;spacingLeft=4;spacingRight=4;overflow=hidden;rotatable=0;points=[[0,0.5],[1,0.5]];portConstraint=eastwest;" parent="vOYVuL1RBpVOzwgV3RMF-17" vertex="1">
          <mxGeometry y="370" width="230" height="26" as="geometry" />
        </mxCell>
        <mxCell id="vOYVuL1RBpVOzwgV3RMF-38" value="+Edit Reservation Date();" style="text;align=left;verticalAlign=top;spacingLeft=4;spacingRight=4;overflow=hidden;rotatable=0;points=[[0,0.5],[1,0.5]];portConstraint=eastwest;" parent="vOYVuL1RBpVOzwgV3RMF-17" vertex="1">
          <mxGeometry y="396" width="230" height="26" as="geometry" />
        </mxCell>
        <mxCell id="vOYVuL1RBpVOzwgV3RMF-39" value="+Show Reservation Order();" style="text;align=left;verticalAlign=top;spacingLeft=4;spacingRight=4;overflow=hidden;rotatable=0;points=[[0,0.5],[1,0.5]];portConstraint=eastwest;" parent="vOYVuL1RBpVOzwgV3RMF-17" vertex="1">
          <mxGeometry y="422" width="230" height="26" as="geometry" />
        </mxCell>
        <mxCell id="vOYVuL1RBpVOzwgV3RMF-40" value="+Rate Teacher();" style="text;align=left;verticalAlign=top;spacingLeft=4;spacingRight=4;overflow=hidden;rotatable=0;points=[[0,0.5],[1,0.5]];portConstraint=eastwest;" parent="vOYVuL1RBpVOzwgV3RMF-17" vertex="1">
          <mxGeometry y="448" width="230" height="26" as="geometry" />
        </mxCell>
        <mxCell id="vOYVuL1RBpVOzwgV3RMF-41" value="+Review Teacher();" style="text;align=left;verticalAlign=top;spacingLeft=4;spacingRight=4;overflow=hidden;rotatable=0;points=[[0,0.5],[1,0.5]];portConstraint=eastwest;" parent="vOYVuL1RBpVOzwgV3RMF-17" vertex="1">
          <mxGeometry y="474" width="230" height="26" as="geometry" />
        </mxCell>
        <mxCell id="vOYVuL1RBpVOzwgV3RMF-42" value="+Get All Teacher Review();" style="text;align=left;verticalAlign=top;spacingLeft=4;spacingRight=4;overflow=hidden;rotatable=0;points=[[0,0.5],[1,0.5]];portConstraint=eastwest;" parent="vOYVuL1RBpVOzwgV3RMF-17" vertex="1">
          <mxGeometry y="500" width="230" height="26" as="geometry" />
        </mxCell>
        <mxCell id="vOYVuL1RBpVOzwgV3RMF-43" value="+Tip Teacher();" style="text;align=left;verticalAlign=top;spacingLeft=4;spacingRight=4;overflow=hidden;rotatable=0;points=[[0,0.5],[1,0.5]];portConstraint=eastwest;" parent="vOYVuL1RBpVOzwgV3RMF-17" vertex="1">
          <mxGeometry y="526" width="230" height="26" as="geometry" />
        </mxCell>
        <mxCell id="vOYVuL1RBpVOzwgV3RMF-60" style="edgeStyle=orthogonalEdgeStyle;rounded=0;orthogonalLoop=1;jettySize=auto;html=1;exitX=0.5;exitY=0;exitDx=0;exitDy=0;" parent="WIyWlLk6GJQsqaUBKTNV-1" source="vOYVuL1RBpVOzwgV3RMF-49" edge="1">
          <mxGeometry relative="1" as="geometry">
            <mxPoint x="130" y="990" as="targetPoint" />
            <Array as="points">
              <mxPoint x="310" y="1036" />
              <mxPoint x="130" y="1036" />
            </Array>
          </mxGeometry>
        </mxCell>
        <mxCell id="vOYVuL1RBpVOzwgV3RMF-69" value="1..*" style="edgeLabel;html=1;align=center;verticalAlign=middle;resizable=0;points=[];" parent="vOYVuL1RBpVOzwgV3RMF-60" vertex="1" connectable="0">
          <mxGeometry x="0.3636" y="3" relative="1" as="geometry">
            <mxPoint x="-41" y="-22" as="offset" />
          </mxGeometry>
        </mxCell>
        <mxCell id="vOYVuL1RBpVOzwgV3RMF-61" style="edgeStyle=orthogonalEdgeStyle;rounded=0;orthogonalLoop=1;jettySize=auto;html=1;exitX=0.5;exitY=0;exitDx=0;exitDy=0;" parent="WIyWlLk6GJQsqaUBKTNV-1" edge="1">
          <mxGeometry relative="1" as="geometry">
            <mxPoint x="310" y="1084" as="sourcePoint" />
            <mxPoint x="440" y="810" as="targetPoint" />
            <Array as="points">
              <mxPoint x="310" y="1034" />
              <mxPoint x="440" y="1034" />
            </Array>
          </mxGeometry>
        </mxCell>
        <mxCell id="vOYVuL1RBpVOzwgV3RMF-72" value="*..1" style="edgeLabel;html=1;align=center;verticalAlign=middle;resizable=0;points=[];" parent="vOYVuL1RBpVOzwgV3RMF-61" vertex="1" connectable="0">
          <mxGeometry x="-0.9353" relative="1" as="geometry">
            <mxPoint y="-5" as="offset" />
          </mxGeometry>
        </mxCell>
        <mxCell id="vOYVuL1RBpVOzwgV3RMF-107" value="1..*" style="edgeLabel;html=1;align=center;verticalAlign=middle;resizable=0;points=[];" parent="vOYVuL1RBpVOzwgV3RMF-61" vertex="1" connectable="0">
          <mxGeometry x="0.6943" y="-4" relative="1" as="geometry">
            <mxPoint as="offset" />
          </mxGeometry>
        </mxCell>
        <mxCell id="vOYVuL1RBpVOzwgV3RMF-49" value="Reservation Order" style="swimlane;fontStyle=0;align=center;verticalAlign=top;childLayout=stackLayout;horizontal=1;startSize=26;horizontalStack=0;resizeParent=1;resizeLast=0;collapsible=1;marginBottom=0;rounded=0;shadow=0;strokeWidth=1;" parent="WIyWlLk6GJQsqaUBKTNV-1" vertex="1">
          <mxGeometry x="230" y="1080" width="160" height="372" as="geometry">
            <mxRectangle x="550" y="140" width="160" height="26" as="alternateBounds" />
          </mxGeometry>
        </mxCell>
        <mxCell id="vOYVuL1RBpVOzwgV3RMF-51" value="-ID: Integer" style="text;align=left;verticalAlign=top;spacingLeft=4;spacingRight=4;overflow=hidden;rotatable=0;points=[[0,0.5],[1,0.5]];portConstraint=eastwest;rounded=0;shadow=0;html=0;" parent="vOYVuL1RBpVOzwgV3RMF-49" vertex="1">
          <mxGeometry y="26" width="160" height="26" as="geometry" />
        </mxCell>
        <mxCell id="vOYVuL1RBpVOzwgV3RMF-81" value="-TotalPrice: Integer" style="text;align=left;verticalAlign=top;spacingLeft=4;spacingRight=4;overflow=hidden;rotatable=0;points=[[0,0.5],[1,0.5]];portConstraint=eastwest;rounded=0;shadow=0;html=0;" parent="vOYVuL1RBpVOzwgV3RMF-49" vertex="1">
          <mxGeometry y="52" width="160" height="26" as="geometry" />
        </mxCell>
        <mxCell id="vOYVuL1RBpVOzwgV3RMF-83" value="-SessionQuantity: Integer" style="text;align=left;verticalAlign=top;spacingLeft=4;spacingRight=4;overflow=hidden;rotatable=0;points=[[0,0.5],[1,0.5]];portConstraint=eastwest;rounded=0;shadow=0;html=0;" parent="vOYVuL1RBpVOzwgV3RMF-49" vertex="1">
          <mxGeometry y="78" width="160" height="26" as="geometry" />
        </mxCell>
        <mxCell id="vOYVuL1RBpVOzwgV3RMF-84" value="-Date: DateTime" style="text;align=left;verticalAlign=top;spacingLeft=4;spacingRight=4;overflow=hidden;rotatable=0;points=[[0,0.5],[1,0.5]];portConstraint=eastwest;rounded=0;shadow=0;html=0;" parent="vOYVuL1RBpVOzwgV3RMF-49" vertex="1">
          <mxGeometry y="104" width="160" height="26" as="geometry" />
        </mxCell>
        <mxCell id="vOYVuL1RBpVOzwgV3RMF-85" value="-Status: String" style="text;align=left;verticalAlign=top;spacingLeft=4;spacingRight=4;overflow=hidden;rotatable=0;points=[[0,0.5],[1,0.5]];portConstraint=eastwest;rounded=0;shadow=0;html=0;" parent="vOYVuL1RBpVOzwgV3RMF-49" vertex="1">
          <mxGeometry y="130" width="160" height="26" as="geometry" />
        </mxCell>
        <mxCell id="vOYVuL1RBpVOzwgV3RMF-52" value="" style="line;html=1;strokeWidth=1;align=left;verticalAlign=middle;spacingTop=-1;spacingLeft=3;spacingRight=3;rotatable=0;labelPosition=right;points=[];portConstraint=eastwest;" parent="vOYVuL1RBpVOzwgV3RMF-49" vertex="1">
          <mxGeometry y="156" width="160" height="8" as="geometry" />
        </mxCell>
        <mxCell id="vOYVuL1RBpVOzwgV3RMF-55" value="+Get Student Name();" style="text;align=left;verticalAlign=top;spacingLeft=4;spacingRight=4;overflow=hidden;rotatable=0;points=[[0,0.5],[1,0.5]];portConstraint=eastwest;" parent="vOYVuL1RBpVOzwgV3RMF-49" vertex="1">
          <mxGeometry y="164" width="160" height="26" as="geometry" />
        </mxCell>
        <mxCell id="vOYVuL1RBpVOzwgV3RMF-58" value="+Get Student Email();" style="text;align=left;verticalAlign=top;spacingLeft=4;spacingRight=4;overflow=hidden;rotatable=0;points=[[0,0.5],[1,0.5]];portConstraint=eastwest;" parent="vOYVuL1RBpVOzwgV3RMF-49" vertex="1">
          <mxGeometry y="190" width="160" height="26" as="geometry" />
        </mxCell>
        <mxCell id="vOYVuL1RBpVOzwgV3RMF-56" value="+Get Teacher Name();" style="text;align=left;verticalAlign=top;spacingLeft=4;spacingRight=4;overflow=hidden;rotatable=0;points=[[0,0.5],[1,0.5]];portConstraint=eastwest;" parent="vOYVuL1RBpVOzwgV3RMF-49" vertex="1">
          <mxGeometry y="216" width="160" height="26" as="geometry" />
        </mxCell>
        <mxCell id="vOYVuL1RBpVOzwgV3RMF-57" value="+Get Teacher Email();" style="text;align=left;verticalAlign=top;spacingLeft=4;spacingRight=4;overflow=hidden;rotatable=0;points=[[0,0.5],[1,0.5]];portConstraint=eastwest;" parent="vOYVuL1RBpVOzwgV3RMF-49" vertex="1">
          <mxGeometry y="242" width="160" height="26" as="geometry" />
        </mxCell>
        <mxCell id="vOYVuL1RBpVOzwgV3RMF-75" value="+Get Reservation Status();" style="text;align=left;verticalAlign=top;spacingLeft=4;spacingRight=4;overflow=hidden;rotatable=0;points=[[0,0.5],[1,0.5]];portConstraint=eastwest;" parent="vOYVuL1RBpVOzwgV3RMF-49" vertex="1">
          <mxGeometry y="268" width="160" height="26" as="geometry" />
        </mxCell>
        <mxCell id="vOYVuL1RBpVOzwgV3RMF-59" value="+Get Total Price();" style="text;align=left;verticalAlign=top;spacingLeft=4;spacingRight=4;overflow=hidden;rotatable=0;points=[[0,0.5],[1,0.5]];portConstraint=eastwest;" parent="vOYVuL1RBpVOzwgV3RMF-49" vertex="1">
          <mxGeometry y="294" width="160" height="26" as="geometry" />
        </mxCell>
        <mxCell id="vOYVuL1RBpVOzwgV3RMF-76" value="+Get SessionCategory();" style="text;align=left;verticalAlign=top;spacingLeft=4;spacingRight=4;overflow=hidden;rotatable=0;points=[[0,0.5],[1,0.5]];portConstraint=eastwest;" parent="vOYVuL1RBpVOzwgV3RMF-49" vertex="1">
          <mxGeometry y="320" width="160" height="26" as="geometry" />
        </mxCell>
        <mxCell id="vOYVuL1RBpVOzwgV3RMF-102" style="edgeStyle=orthogonalEdgeStyle;rounded=0;orthogonalLoop=1;jettySize=auto;html=1;exitX=0.5;exitY=0;exitDx=0;exitDy=0;entryX=1.012;entryY=-0.134;entryDx=0;entryDy=0;entryPerimeter=0;" parent="WIyWlLk6GJQsqaUBKTNV-1" source="vOYVuL1RBpVOzwgV3RMF-87" target="vOYVuL1RBpVOzwgV3RMF-55" edge="1">
          <mxGeometry relative="1" as="geometry">
            <Array as="points">
              <mxPoint x="510" y="1330" />
              <mxPoint x="510" y="1240" />
            </Array>
          </mxGeometry>
        </mxCell>
        <mxCell id="vOYVuL1RBpVOzwgV3RMF-105" value="1..1" style="edgeLabel;html=1;align=center;verticalAlign=middle;resizable=0;points=[];" parent="vOYVuL1RBpVOzwgV3RMF-102" vertex="1" connectable="0">
          <mxGeometry x="0.5658" y="3" relative="1" as="geometry">
            <mxPoint as="offset" />
          </mxGeometry>
        </mxCell>
        <mxCell id="vOYVuL1RBpVOzwgV3RMF-108" style="edgeStyle=orthogonalEdgeStyle;rounded=0;orthogonalLoop=1;jettySize=auto;html=1;exitX=0.5;exitY=0;exitDx=0;exitDy=0;" parent="WIyWlLk6GJQsqaUBKTNV-1" source="vOYVuL1RBpVOzwgV3RMF-87" edge="1">
          <mxGeometry relative="1" as="geometry">
            <mxPoint x="460" y="810" as="targetPoint" />
            <Array as="points">
              <mxPoint x="540" y="1070" />
              <mxPoint x="460" y="1070" />
            </Array>
          </mxGeometry>
        </mxCell>
        <mxCell id="vOYVuL1RBpVOzwgV3RMF-109" value="1..*" style="edgeLabel;html=1;align=center;verticalAlign=middle;resizable=0;points=[];" parent="vOYVuL1RBpVOzwgV3RMF-108" vertex="1" connectable="0">
          <mxGeometry x="0.9218" y="-1" relative="1" as="geometry">
            <mxPoint as="offset" />
          </mxGeometry>
        </mxCell>
        <mxCell id="vOYVuL1RBpVOzwgV3RMF-110" value="*..1" style="edgeLabel;html=1;align=center;verticalAlign=middle;resizable=0;points=[];" parent="vOYVuL1RBpVOzwgV3RMF-108" vertex="1" connectable="0">
          <mxGeometry x="-0.9107" y="3" relative="1" as="geometry">
            <mxPoint as="offset" />
          </mxGeometry>
        </mxCell>
        <mxCell id="vOYVuL1RBpVOzwgV3RMF-87" value="Rating" style="swimlane;fontStyle=0;align=center;verticalAlign=top;childLayout=stackLayout;horizontal=1;startSize=26;horizontalStack=0;resizeParent=1;resizeLast=0;collapsible=1;marginBottom=0;rounded=0;shadow=0;strokeWidth=1;" parent="WIyWlLk6GJQsqaUBKTNV-1" vertex="1">
          <mxGeometry x="460" y="1330" width="160" height="170" as="geometry">
            <mxRectangle x="550" y="140" width="160" height="26" as="alternateBounds" />
          </mxGeometry>
        </mxCell>
        <mxCell id="vOYVuL1RBpVOzwgV3RMF-88" value="-ID: Integer" style="text;align=left;verticalAlign=top;spacingLeft=4;spacingRight=4;overflow=hidden;rotatable=0;points=[[0,0.5],[1,0.5]];portConstraint=eastwest;rounded=0;shadow=0;html=0;" parent="vOYVuL1RBpVOzwgV3RMF-87" vertex="1">
          <mxGeometry y="26" width="160" height="26" as="geometry" />
        </mxCell>
        <mxCell id="vOYVuL1RBpVOzwgV3RMF-92" value="-Review: String" style="text;align=left;verticalAlign=top;spacingLeft=4;spacingRight=4;overflow=hidden;rotatable=0;points=[[0,0.5],[1,0.5]];portConstraint=eastwest;rounded=0;shadow=0;html=0;" parent="vOYVuL1RBpVOzwgV3RMF-87" vertex="1">
          <mxGeometry y="52" width="160" height="26" as="geometry" />
        </mxCell>
        <mxCell id="vOYVuL1RBpVOzwgV3RMF-93" value="-Rate: Integer" style="text;align=left;verticalAlign=top;spacingLeft=4;spacingRight=4;overflow=hidden;rotatable=0;points=[[0,0.5],[1,0.5]];portConstraint=eastwest;rounded=0;shadow=0;html=0;" parent="vOYVuL1RBpVOzwgV3RMF-87" vertex="1">
          <mxGeometry y="78" width="160" height="26" as="geometry" />
        </mxCell>
        <mxCell id="vOYVuL1RBpVOzwgV3RMF-94" value="" style="line;html=1;strokeWidth=1;align=left;verticalAlign=middle;spacingTop=-1;spacingLeft=3;spacingRight=3;rotatable=0;labelPosition=right;points=[];portConstraint=eastwest;" parent="vOYVuL1RBpVOzwgV3RMF-87" vertex="1">
          <mxGeometry y="104" width="160" height="8" as="geometry" />
        </mxCell>
        <mxCell id="vOYVuL1RBpVOzwgV3RMF-106" value="+Assign Tutor Review (): " style="text;align=left;verticalAlign=top;spacingLeft=4;spacingRight=4;overflow=hidden;rotatable=0;points=[[0,0.5],[1,0.5]];portConstraint=eastwest;rounded=0;shadow=0;html=0;" parent="vOYVuL1RBpVOzwgV3RMF-87" vertex="1">
          <mxGeometry y="112" width="160" height="26" as="geometry" />
        </mxCell>
      </root>
    </mxGraphModel>
  </diagram>
</mxfile>
